<?xml version="1.0" encoding="UTF-8" standalone="no"?>
<svg
   xmlns:dc="http://purl.org/dc/elements/1.1/"
   xmlns:cc="http://creativecommons.org/ns#"
   xmlns:rdf="http://www.w3.org/1999/02/22-rdf-syntax-ns#"
   xmlns:svg="http://www.w3.org/2000/svg"
   xmlns="http://www.w3.org/2000/svg"
   xmlns:sodipodi="http://sodipodi.sourceforge.net/DTD/sodipodi-0.dtd"
   xmlns:inkscape="http://www.inkscape.org/namespaces/inkscape"
   xmlns:xlink="http://www.w3.org/1999/xlink"
   width="1270"
   height="510">

  <defs>
    <path id="o" d="M 0 80
      C 0 100 0 160 40 160
      C 80 160 80 100 80 80
      C 80 60 80 0 40 0
      C 0 0 0 60 0 80 Z"/>
    <path id="r" d="M 0 0
      L 0 160
      L 0 90
      C 0 50 30 0 70 0"/>
    <path id="n" d="M 0 160
      L 0 70
      C 0 20 10 0 40 0
      C 70 0 80 20 80 70
      L 80 160"/>
    <path id="a" d="M 60 120
      C 60 170 0 180 0 120
      C 0 80 60 80 60 60 Z
      M 60 160
      L 60 30
      C 60 20 50 0 30 0
      C 10 0 0 20 0 30"/>
    <path id="m" d="M 0 160
      L 0 70
      C 0 20 10 0 40 0
      C 70 0 80 20 80 70
      L 80 160
      L 80 70
      C 80 20 90 0 120 0
      C 150 0 160 20 160 70
      L 160 160"/>
    <path id="e" d="M 0 100
      C 0 80 60 80 60 40
      C 60 -20 0 -10 0 40
      L 0 130
      C 0 140 10 160 30 160
      C 50 160 60 140 60 130"/>
    <path id="t" d="M 20 0
      L 20 160
      M 0 50
      L 40 50"/>
    <path id="u" d="M 0 0
      L 0 90
      C 0 140 10 160 40 160
      C 70 160 80 140 80 90
      L 80 0"/>
    <path id="c" d="M 60 30
      C 60 20 50 0 30 0
      C 10 0 0 20 0 30
      L 0 130
      C 0 140 10 160 30 160
      C 50 160 60 140 60 130"/>
    <filter id="flt">
      <feGaussianBlur in="SourceAlpha" stdDeviation="3"/>
      <feSpecularLighting
          surfaceScale="10"
          specularExponent="2"
          specularConstant="0.55">
        <feDistantLight azimuth="225" elevation="20"/>
      </feSpecularLighting>
      <feComposite in2="SourceAlpha" operator="in"/>
      <feComposite
          in2="SourceGraphic"
          operator="arithmetic"
          k2="1"
          k3="1"
          result="highlit"/>
      <feGaussianBlur in="SourceAlpha" stdDeviation="10"/>
      <feOffset dx="10" dy="10" result="shadow"/>
      <feMerge>
        <feMergeNode in="shadow"/>
        <feMergeNode in="highlit"/>
      </feMerge>
    </filter>
  </defs>

  <g id="title" fill="none" stroke="black" stroke-width="15"
     stroke-linecap="round" stroke-linejoin="round"
     transform="translate(50, 50)" style="filter:url(#flt)">
    <g id="mes" stroke="#800000">
      <path id="ms" d="M 0 160
        L 0 70
        C 0 20 10 0 40 0
        C 70 0 80 20 80 70
        L 80 160
        L 80 70
        C 80 20 90 0 120 0
        C 150 0 160 20 160 70
        L 160 150
        C 160 180 180 200 210 200
        L 1120 200
        C 1150 200 1170 180 1170 150
        C 1170 120 1150 100 1120 100
        C 1090 100 1070 90 1070 50
        C 1070 20 1090 0 1120 0
        L 1150 0"/>
      <use x="420" y="60" xlink:href="#e" transform="scale(0.8, 0.8)"/>
    </g>
    <g id="ornament" stroke="#000080" transform="translate(190, 0)">
      <use x="0" y="0" xlink:href="#o"/>
      <use x="110" y="0" xlink:href="#r"/>
      <use x="220" y="0" xlink:href="#n"/>
      <use x="330" y="0" xlink:href="#a"/>
      <use x="420" y="0" xlink:href="#m"/>
      <use x="610" y="0" xlink:href="#e"/>
      <use x="700" y="0" xlink:href="#n"/>
      <use x="810" y="0" xlink:href="#t"/>
    </g>
    <g id="euc" stroke="#006600" transform="translate(455, 250)">
      <use x="0" y="0" xlink:href="#e"/>
      <use x="90" y="0" xlink:href="#u"/>
      <use x="200" y="0" xlink:href="#c"/>
    </g>
  </g>

</svg>
